<?xml version="1.0" standalone="no"?>
<!DOCTYPE svg PUBLIC "-//W3C//DTD SVG 20010904//EN"
 "http://www.w3.org/TR/2001/REC-SVG-20010904/DTD/svg10.dtd">
<svg version="1.0" xmlns="http://www.w3.org/2000/svg"
 width="1899.000000pt" height="531.000000pt" viewBox="0 0 1899.000000 531.000000"
 preserveAspectRatio="xMidYMid meet">
<metadata>
Created by potrace 1.16, written by Peter Selinger 2001-2019
</metadata>
<g transform="translate(0.000000,531.000000) scale(0.100000,-0.100000)"
fill="#000000" stroke="none">
<path d="M13590 4714 c-14 -2 -65 -9 -115 -15 -191 -24 -417 -92 -610 -185
-547 -261 -971 -776 -1119 -1359 -50 -200 -60 -285 -60 -525 0 -240 10 -325
60 -525 183 -722 777 -1316 1499 -1499 200 -50 285 -60 525 -60 240 0 325 10
525 60 722 183 1316 777 1499 1499 50 200 60 285 60 525 0 240 -10 325 -60
525 -92 361 -295 709 -570 976 -311 300 -689 490 -1124 564 -90 16 -452 29
-510 19z m345 -114 c453 -41 868 -227 1191 -532 630 -597 800 -1528 420 -2303
-551 -1123 -1972 -1461 -2974 -708 -369 278 -642 711 -737 1170 -139 669 78
1363 573 1834 409 390 974 589 1527 539z"/>
<path d="M12787 4082 c-15 -17 -17 -75 -17 -630 l0 -612 -114 0 c-91 0 -118
-3 -130 -16 -14 -14 -16 -81 -16 -590 0 -378 4 -582 10 -595 10 -17 22 -19
130 -19 l120 0 0 -190 c0 -177 1 -191 20 -210 20 -20 33 -20 1030 -20 l1009 0
21 22 c19 20 20 34 20 210 l0 188 114 0 c91 0 118 3 130 16 14 14 16 81 16
593 0 547 -1 579 -18 594 -15 14 -40 17 -130 17 l-112 0 0 402 0 402 -227 228
-227 228 -807 0 c-768 0 -807 -1 -822 -18z m1555 -209 c7 -121 25 -170 88
-226 60 -54 103 -67 219 -67 l91 0 0 -370 0 -370 -920 0 -920 0 0 565 0 565
719 0 718 0 5 -97z m58 -1393 c36 -18 90 -72 90 -90 0 -5 3 -15 6 -23 4 -11
-7 -18 -47 -26 -28 -6 -52 -10 -53 -9 -29 77 -117 106 -196 66 -60 -31 -83
-77 -82 -169 1 -155 110 -229 245 -165 33 17 37 22 37 57 l0 39 -60 0 -60 0 0
45 0 45 115 0 116 0 -3 -112 -3 -113 -65 -33 c-174 -87 -363 -29 -415 128 -26
79 -18 202 18 263 53 90 140 131 256 121 35 -2 80 -13 101 -24z m-1110 -250
l0 -270 -55 0 -55 0 0 270 0 270 55 0 55 0 0 -270z m310 93 c25 -94 48 -174
51 -178 4 -3 25 66 48 152 22 87 44 168 47 181 6 20 12 22 85 22 l79 0 0 -270
0 -270 -51 0 -51 0 4 205 c1 113 1 205 -2 205 -3 0 -27 -91 -55 -203 l-50
-202 -52 -3 -52 -3 -10 38 c-6 21 -28 112 -51 202 -22 90 -42 167 -45 169 -3
3 -5 -88 -5 -201 l0 -207 -50 0 -50 0 0 270 0 271 82 -3 82 -3 46 -172z m1140
-848 l0 -145 -920 0 -920 0 0 145 0 145 920 0 920 0 0 -145z"/>
<path d="M13200 3565 l0 -55 440 0 440 0 0 55 0 55 -440 0 -440 0 0 -55z"/>
<path d="M13200 3315 l0 -55 620 0 620 0 0 55 0 55 -620 0 -620 0 0 -55z"/>
<path d="M13200 3063 l0 -58 617 2 618 3 0 52 0 53 -617 3 -618 2 0 -57z"/>
<path d="M2207 3433 l-76 -98 55 -3 c61 -3 44 -15 232 155 l47 42 -91 1 -91 0
-76 -97z"/>
<path d="M5530 3283 c-187 -31 -341 -164 -406 -351 -87 -250 -36 -539 123
-698 190 -190 529 -188 721 4 112 112 163 255 164 457 1 140 -15 214 -68 323
-94 192 -315 302 -534 265z m212 -141 c143 -63 238 -241 238 -447 0 -211 -87
-383 -228 -452 -49 -24 -69 -28 -142 -28 -73 0 -93 4 -141 28 -63 31 -136 103
-169 166 -34 68 -60 186 -60 275 1 240 103 417 273 472 58 19 170 12 229 -14z"/>
<path d="M1180 3205 l0 -65 175 0 175 0 0 -515 0 -515 75 0 75 0 0 515 0 515
175 0 175 0 0 65 0 65 -425 0 -425 0 0 -65z"/>
<path d="M2140 2690 l0 -580 75 0 75 0 0 580 0 580 -75 0 -75 0 0 -580z"/>
<path d="M2390 3205 l0 -65 175 0 175 0 0 -515 0 -515 75 0 75 0 0 515 0 515
175 0 175 0 0 65 0 65 -425 0 -425 0 0 -65z"/>
<path d="M3350 2893 c1 -280 4 -399 15 -457 37 -208 160 -326 358 -342 191
-16 354 70 424 222 45 99 52 177 53 582 l0 372 -74 0 -75 0 -3 -412 c-3 -409
-3 -414 -27 -473 -33 -83 -90 -138 -166 -160 -146 -43 -269 18 -326 162 -24
57 -24 64 -27 471 l-3 412 -75 0 -74 0 0 -377z"/>
<path d="M4420 2690 l0 -580 320 0 320 0 0 60 0 60 -245 0 -245 0 0 520 0 520
-75 0 -75 0 0 -580z"/>
</g>
</svg>
